<svg version="1.1" id="Capa_1" xmlns="http://www.w3.org/2000/svg" xmlns:xlink="http://www.w3.org/1999/xlink" x="0px" y="0px"
	 viewBox="0 0 1543 320" style="enable-background:new 0 0 1543 320;" xml:space="preserve">
<g>
	<g>
		<g>
			<path style="fill:#FFFFFF;" d="M491.4,31V220H446l-94.2-113v113h-45.4V31h45.4L446,148.8V31H491.4z"/>
			<path style="fill:#FFFFFF;" d="M694.9,70.5V220h-44.8v-12c-5.5,4.3-11.6,8-18,10.7c-20.1,8.1-42.5,8.1-62.6,0
				c-9.5-4.1-18-9.9-25.3-17.2c-22.8-23.2-29.6-57.8-17.2-87.9c8.3-19.1,23.4-34.2,42.5-42.5c19.9-8.5,42.5-8.5,62.6,0
				c6.5,2.9,12.5,6.5,18,10.7V70.2L694.9,70.5z M641.2,145.1c-0.1-22.3-18.2-40.2-40.4-40.2c-22.3,0-40.2,18.2-40.2,40.4
				c0.1,22.3,18.2,40.2,40.4,40.2C623.3,185.3,641.2,167.3,641.2,145.1L641.2,145.1L641.2,145.1z"/>
			<path style="fill:#FFFFFF;" d="M881.7,70.4L823.8,220h-50.1L715.8,70.2H760l38.6,89.8l38.9-89.8h44.1V70.4z"/>
			<path style="fill:#FFFFFF;" d="M933.7,53.1c-14.4,0-26.3-11.7-26.4-26.1s11.7-26.3,26.1-26.4c14.4,0,26.3,11.7,26.4,26.1v0.1
				C959.8,41.4,948.1,53.1,933.7,53.1z M911,70.8h45.4V220H911V70.8z"/>
		</g>
		<g>
			<path style="fill:#FFFFFF;" d="M1054.1,104.6v48.3c0,29.4,12,29,28.2,29.4v40.4c-56.1,9.9-74.9-18.8-74.9-55v-63h-22.1V70.5h22.1
				V14.4h46.8v55.8h40.7v34.2h-40.7V104.6z"/>
		</g>
		<g>
			<path style="fill:#FFFFFF;" d="M1278,70.4c0,0-44.1,111.7-59.5,148.7c-32,75.9-64.5,87.2-84.6,87.2V257c16,0,34.9-16.9,34.9-38.1
				l-57.3-148.5h44.1l37.8,89l37.5-89H1278z"/>
		</g>
	</g>
	<path style="fill:#CCCCCC;" d="M1004.9,319.3c-22.7-0.1-44.8-7.7-62.7-21.7c-7.2-5.5-13.3-12-18.4-19.4c-4.5,7.2-10.2,13.6-16.6,19
		c-16.6,14-37.7,21.9-59.4,21.9c-33.1,0-63.8-18.8-78.1-40.2C757.8,299.8,731.8,319,696,319c-36.3,0-63.4-19.3-76-39.9
		c-12.7,20.6-39.5,39.9-75.6,39.9c-21.9,0.1-43-7.6-59.8-21.7c-6.1-5.1-11.4-11.1-15.7-17.9c-13.2,21.5-41.9,39.7-76.2,39.7
		c-51.7,0-83.6-33.7-83.6-64.9h16c0,23.7,27.2,48.8,67.7,48.8c40.8,0,68.1-29.4,68.1-48.8h16c0,17.2,25.7,48.8,67.7,48.8
		c39.2,0,67.7-29.2,67.7-48.8h16c0,17.2,25.9,48.8,68.1,48.8c42.5,0,64.8-31.8,64.8-48.8h16c0,16.8,30,48.8,71,48.8
		c41.3,0,67.7-32,67.7-48.8h16c0,16.8,31.1,49.1,73.6,49.1c38.9,0,62.2-18.3,62.2-49.1h16C1083,294.4,1053.2,319.3,1004.9,319.3z"/>
</g>
</svg>
