<svg version="1.1" id="Capa_1" xmlns="http://www.w3.org/2000/svg" xmlns:xlink="http://www.w3.org/1999/xlink" x="0px" y="0px"
	 viewBox="0 0 900 320" style="enable-background:new 0 0 900 320;" xml:space="preserve">
<g>
	<g>
		<g>
			<path style="fill:#FFFFFF;" d="M228.3,110.9V246h-32.4l-67.4-80.8V246H96V110.9h32.4l67.4,84.2v-84.2H228.3z"/>
			<path style="fill:#FFFFFF;" d="M373.8,139.1V246h-32.1v-8.6c-3.9,3-8.3,5.7-12.9,7.7c-14.4,5.8-30.4,5.8-44.7,0
				c-6.8-2.9-12.9-7.1-18.1-12.3c-16.3-16.6-21.1-41.3-12.3-62.8c5.9-13.7,16.7-24.5,30.4-30.4c14.3-6.1,30.4-6.1,44.7,0
				c4.6,2.1,8.9,4.6,12.9,7.7v-8.4L373.8,139.1z M335.3,192.4c-0.1-15.9-13-28.7-28.9-28.7s-28.7,13-28.7,28.9
				c0.1,15.9,13,28.7,28.9,28.7C322.5,221.2,335.3,208.3,335.3,192.4L335.3,192.4L335.3,192.4z"/>
			<path style="fill:#FFFFFF;" d="M507.3,139l-41.4,107h-35.8l-41.4-107.1h31.6l27.6,64.2l27.8-64.2L507.3,139L507.3,139z"/>
			<path style="fill:#FFFFFF;" d="M544.5,126.6c-10.3,0-18.8-8.4-18.9-18.7c-0.1-10.3,8.4-18.8,18.7-18.9c10.3,0,18.8,8.4,18.9,18.7
				v0.1C563.2,118.3,554.8,126.6,544.5,126.6z M528.3,139.3h32.4V246h-32.4V139.3z"/>
		</g>
		<g>
			<path style="fill:#FFFFFF;" d="M630.6,163.5V198c0,21,8.6,20.7,20.2,21V248c-40.1,7.1-53.6-13.5-53.6-39.3v-45h-15.8v-24.5h15.8
				V99h33.4v39.9h29.1v24.5L630.6,163.5L630.6,163.5z"/>
		</g>
		<g>
			<path style="fill:#FFFFFF;" d="M790.7,139c0,0-31.6,79.8-42.6,106.3c-22.9,54.3-46.1,62.3-60.5,62.3v-35.2
				c11.4,0,25-12.1,25-27.2l-41-106.2h31.6l27,63.6l26.8-63.6H790.7z"/>
		</g>
	</g>
	<path style="fill:#CCCCCC;" d="M508,85.2c20.2-20.1,52.8-20.1,72.9,0l2.2,2.2c2,2.6,6.5,1.7,10.1-2l2.9-2.8
		c3.6-3.6,4.9-8.7,2.9-11.1l-2.1-2.1c-28.9-28.8-75.7-28.8-104.6,0l-2.1,2.1C488,74,489.3,79,493,82.7l2.8,2.8
		c3.6,3.6,8.2,4.5,10.1,2L508,85.2z"/>
	<circle style="fill:#CCCCCC;" cx="544.5" cy="107.8" r="18.7"/>
	<path style="fill:#CCCCCC;" d="M458.7,38.2l-1.7,1.8c-1.8,2-0.2,6.6,3.4,10.2l2.7,2.7c3.5,3.6,8.1,4.9,9.8,2.9l1.8-1.8
		c0.3-0.3,0.6-0.6,0.9-0.9c38.1-38,99.6-38,137.7,0c0.6,0.6,1.3,1.3,1.9,2l1.4,1.5c1.5,1.7,5.6,0.1,9.2-3.5l2.7-2.7
		c3.6-3.6,5.4-8,3.9-9.6l-1.4-1.5c-0.6-0.7-1.2-1.3-1.9-1.9c-46.7-46.7-122.6-46.7-169.3,0C459.4,37.5,459,37.8,458.7,38.2z"/>
	<path style="fill:#CCCCCC;" d="M595.4,317c-16.2-0.1-32.1-5.5-44.8-15.5c-5.1-3.9-9.5-8.6-13.2-13.9c-3.2,5.1-7.3,9.7-11.9,13.6
		c-11.9,10-26.9,15.6-42.5,15.6c-23.7,0-45.6-13.5-55.9-28.7c-8.5,14.9-27,28.7-52.6,28.7c-26,0-45.3-13.8-54.4-28.5
		c-9,14.7-28.2,28.5-54.1,28.5c-15.6,0.1-30.8-5.4-42.8-15.5c-4.3-3.6-8.2-8-11.2-12.8c-9.4,15.3-30,28.4-54.5,28.4
		c-37,0-59.8-24.1-59.8-46.4h11.4c0,16.9,19.5,34.9,48.4,34.9c29.2,0,48.7-21,48.7-34.9h11.4c0,12.3,18.4,34.9,48.4,34.9
		c28,0,48.4-20.8,48.4-34.9h11.4c0,12.3,18.5,34.9,48.7,34.9c30.4,0,46.3-22.7,46.3-34.9h11.4c0,12,21.4,34.9,50.7,34.9
		c29.5,0,48.4-22.9,48.4-34.9h11.4c0,12,22.2,35.1,52.6,35.1c27.8,0,44.4-13.1,44.4-35.1h11.4C651.3,299.2,629.9,317,595.4,317z"/>
</g>
</svg>
